# xmcd
#
# Track frame offsets:
#	150
#	16370
#	32952
#	46764
#	65019
#	81381
#	97349
#	111022
#	124460
#	140479
#	156805
#	170674
#	184760
#	200561
#
# Disc length: 2884 seconds
#
# Revision: 1
# Processed by: cddbd v1.5.2PL0 Copyright (c) Steve Scherf et al.
# Submitted via: audiograbber 1.83.01
#
DISCID=cf0b420e
DTITLE=Various Artist - CDX Volume 629 (February 15, 2016)
DYEAR=2016
DGENRE=Country
TTITLE0=High Valley - Make You Mine
TTITLE1=Cam - Mayday
TTITLE2=Eric Church - Record Year
TTITLE3=Vince Gill (featuring Little Big Town) - Take Me Down [Radio Edit]
TTITLE4=Clare Dunn - Tuxedo [Radio Edit]
TTITLE5=Gene Watson - Enough For You 
TTITLE6=Tim Elliott - Boom 
TTITLE7=Aaron Tracy - Chillbilly
TTITLE8=Joy Frost - Free To Believe
TTITLE9=Matt Stillwell - Hey Dad
TTITLE10=McKenna Faith - Obvious
TTITLE11=Allie Louise - Stilettos
TTITLE12=Jimmy Eugene - Suspicion 
TTITLE13=Smith and Wesley - Sweet Life
EXTD=
EXTT0=
EXTT1=
EXTT2=
EXTT3=
EXTT4=
EXTT5=
EXTT6=
EXTT7=
EXTT8=
EXTT9=
EXTT10=
EXTT11=
EXTT12=
EXTT13=
PLAYORDER=
